<mxfile host="app.diagrams.net" agent="Mozilla/5.0 (Windows NT 10.0; Win64; x64) AppleWebKit/537.36 (KHTML, like Gecko) Chrome/131.0.0.0 Safari/537.36" version="26.0.8">
  <diagram name="Страница — 1" id="VR90piHJOWL_nEEQUYsP">
    <mxGraphModel dx="1257" dy="620" grid="1" gridSize="10" guides="1" tooltips="1" connect="1" arrows="1" fold="1" page="1" pageScale="1" pageWidth="827" pageHeight="1169" math="0" shadow="0">
      <root>
        <mxCell id="0" />
        <mxCell id="1" parent="0" />
        <mxCell id="sK_VnhPonrPOl3efBzBL-46" value="" style="endArrow=classic;html=1;rounded=0;" edge="1" parent="1">
          <mxGeometry width="50" height="50" relative="1" as="geometry">
            <mxPoint x="700" y="730" as="sourcePoint" />
            <mxPoint x="385" y="730" as="targetPoint" />
          </mxGeometry>
        </mxCell>
        <mxCell id="sK_VnhPonrPOl3efBzBL-44" value="" style="endArrow=classic;html=1;rounded=0;exitX=0.943;exitY=0.295;exitDx=0;exitDy=0;exitPerimeter=0;" edge="1" parent="1">
          <mxGeometry width="50" height="50" relative="1" as="geometry">
            <mxPoint x="384" y="703" as="sourcePoint" />
            <mxPoint x="695" y="702" as="targetPoint" />
          </mxGeometry>
        </mxCell>
        <mxCell id="sK_VnhPonrPOl3efBzBL-37" value="" style="endArrow=none;dashed=1;html=1;rounded=0;" edge="1" parent="1">
          <mxGeometry width="50" height="50" relative="1" as="geometry">
            <mxPoint x="1020" y="920" as="sourcePoint" />
            <mxPoint x="1020" y="200" as="targetPoint" />
          </mxGeometry>
        </mxCell>
        <mxCell id="sK_VnhPonrPOl3efBzBL-38" value="" style="rounded=0;whiteSpace=wrap;html=1;" vertex="1" parent="1">
          <mxGeometry x="1015" y="290" width="10" height="30" as="geometry" />
        </mxCell>
        <mxCell id="sK_VnhPonrPOl3efBzBL-21" value="" style="endArrow=classic;html=1;rounded=0;" edge="1" parent="1">
          <mxGeometry width="50" height="50" relative="1" as="geometry">
            <mxPoint x="700" y="400" as="sourcePoint" />
            <mxPoint x="385" y="400" as="targetPoint" />
          </mxGeometry>
        </mxCell>
        <mxCell id="sK_VnhPonrPOl3efBzBL-19" value="" style="endArrow=classic;html=1;rounded=0;exitX=1.2;exitY=0.225;exitDx=0;exitDy=0;exitPerimeter=0;" edge="1" parent="1" source="sK_VnhPonrPOl3efBzBL-6">
          <mxGeometry width="50" height="50" relative="1" as="geometry">
            <mxPoint x="550" y="360" as="sourcePoint" />
            <mxPoint x="695" y="359" as="targetPoint" />
          </mxGeometry>
        </mxCell>
        <mxCell id="sK_VnhPonrPOl3efBzBL-17" value="" style="endArrow=none;dashed=1;html=1;rounded=0;" edge="1" parent="1">
          <mxGeometry width="50" height="50" relative="1" as="geometry">
            <mxPoint x="700" y="920" as="sourcePoint" />
            <mxPoint x="700" y="200" as="targetPoint" />
          </mxGeometry>
        </mxCell>
        <mxCell id="sK_VnhPonrPOl3efBzBL-1" value="Пользователь" style="shape=umlActor;verticalLabelPosition=bottom;verticalAlign=top;html=1;outlineConnect=0;" vertex="1" parent="1">
          <mxGeometry x="225" y="110" width="30" height="60" as="geometry" />
        </mxCell>
        <mxCell id="sK_VnhPonrPOl3efBzBL-2" value="" style="endArrow=none;dashed=1;html=1;rounded=0;" edge="1" parent="1">
          <mxGeometry width="50" height="50" relative="1" as="geometry">
            <mxPoint x="240" y="920" as="sourcePoint" />
            <mxPoint x="240" y="200" as="targetPoint" />
          </mxGeometry>
        </mxCell>
        <mxCell id="sK_VnhPonrPOl3efBzBL-3" value="" style="rounded=0;whiteSpace=wrap;html=1;" vertex="1" parent="1">
          <mxGeometry x="235" y="210" width="10" height="670" as="geometry" />
        </mxCell>
        <mxCell id="sK_VnhPonrPOl3efBzBL-4" value="Клавиатура" style="rounded=1;whiteSpace=wrap;html=1;" vertex="1" parent="1">
          <mxGeometry x="320" y="140" width="120" height="60" as="geometry" />
        </mxCell>
        <mxCell id="sK_VnhPonrPOl3efBzBL-5" value="" style="endArrow=none;dashed=1;html=1;rounded=0;" edge="1" parent="1">
          <mxGeometry width="50" height="50" relative="1" as="geometry">
            <mxPoint x="380" y="920" as="sourcePoint" />
            <mxPoint x="380" y="200" as="targetPoint" />
          </mxGeometry>
        </mxCell>
        <mxCell id="sK_VnhPonrPOl3efBzBL-6" value="" style="rounded=0;whiteSpace=wrap;html=1;" vertex="1" parent="1">
          <mxGeometry x="375" y="210" width="10" height="670" as="geometry" />
        </mxCell>
        <mxCell id="sK_VnhPonrPOl3efBzBL-7" value="" style="endArrow=classic;html=1;rounded=0;" edge="1" parent="1">
          <mxGeometry width="50" height="50" relative="1" as="geometry">
            <mxPoint x="245" y="250" as="sourcePoint" />
            <mxPoint x="374" y="250" as="targetPoint" />
          </mxGeometry>
        </mxCell>
        <mxCell id="sK_VnhPonrPOl3efBzBL-8" value="Ввод пин-кода" style="text;html=1;align=center;verticalAlign=middle;whiteSpace=wrap;rounded=0;" vertex="1" parent="1">
          <mxGeometry x="280" y="212" width="60" height="30" as="geometry" />
        </mxCell>
        <mxCell id="sK_VnhPonrPOl3efBzBL-9" value="Соленоид 6V" style="rounded=1;whiteSpace=wrap;html=1;" vertex="1" parent="1">
          <mxGeometry x="480" y="140" width="120" height="60" as="geometry" />
        </mxCell>
        <mxCell id="sK_VnhPonrPOl3efBzBL-11" value="[Проход разешён]" style="text;html=1;align=center;verticalAlign=middle;whiteSpace=wrap;rounded=0;" vertex="1" parent="1">
          <mxGeometry x="300" y="320" width="60" height="30" as="geometry" />
        </mxCell>
        <mxCell id="sK_VnhPonrPOl3efBzBL-12" value="" style="endArrow=none;dashed=1;html=1;rounded=0;" edge="1" parent="1">
          <mxGeometry width="50" height="50" relative="1" as="geometry">
            <mxPoint x="541" y="920" as="sourcePoint" />
            <mxPoint x="541" y="200" as="targetPoint" />
          </mxGeometry>
        </mxCell>
        <mxCell id="sK_VnhPonrPOl3efBzBL-13" value="" style="rounded=0;whiteSpace=wrap;html=1;" vertex="1" parent="1">
          <mxGeometry x="536" y="310" width="10" height="460" as="geometry" />
        </mxCell>
        <mxCell id="sK_VnhPonrPOl3efBzBL-14" value="" style="endArrow=classic;html=1;rounded=0;exitX=1.2;exitY=0.162;exitDx=0;exitDy=0;exitPerimeter=0;" edge="1" parent="1" source="sK_VnhPonrPOl3efBzBL-6">
          <mxGeometry width="50" height="50" relative="1" as="geometry">
            <mxPoint x="390.65000000000003" y="320.25" as="sourcePoint" />
            <mxPoint x="536" y="320" as="targetPoint" />
          </mxGeometry>
        </mxCell>
        <mxCell id="sK_VnhPonrPOl3efBzBL-18" value="" style="rounded=0;whiteSpace=wrap;html=1;" vertex="1" parent="1">
          <mxGeometry x="695" y="350" width="10" height="60" as="geometry" />
        </mxCell>
        <mxCell id="sK_VnhPonrPOl3efBzBL-15" value="Замкнуть" style="text;html=1;align=center;verticalAlign=middle;whiteSpace=wrap;rounded=0;" vertex="1" parent="1">
          <mxGeometry x="430" y="293" width="60" height="30" as="geometry" />
        </mxCell>
        <mxCell id="sK_VnhPonrPOl3efBzBL-16" value="Сервопривод" style="rounded=1;whiteSpace=wrap;html=1;" vertex="1" parent="1">
          <mxGeometry x="640" y="140" width="120" height="60" as="geometry" />
        </mxCell>
        <mxCell id="sK_VnhPonrPOl3efBzBL-10" value="alt" style="shape=umlFrame;whiteSpace=wrap;html=1;pointerEvents=0;" vertex="1" parent="1">
          <mxGeometry x="300" y="264" width="820" height="596" as="geometry" />
        </mxCell>
        <mxCell id="sK_VnhPonrPOl3efBzBL-20" value="Включить" style="text;html=1;align=center;verticalAlign=middle;whiteSpace=wrap;rounded=0;" vertex="1" parent="1">
          <mxGeometry x="590" y="330" width="60" height="30" as="geometry" />
        </mxCell>
        <mxCell id="sK_VnhPonrPOl3efBzBL-22" value="Выключить" style="text;html=1;align=center;verticalAlign=middle;whiteSpace=wrap;rounded=0;" vertex="1" parent="1">
          <mxGeometry x="590" y="370" width="60" height="30" as="geometry" />
        </mxCell>
        <mxCell id="sK_VnhPonrPOl3efBzBL-23" value="loop" style="shape=umlFrame;whiteSpace=wrap;html=1;pointerEvents=0;" vertex="1" parent="1">
          <mxGeometry x="309" y="420" width="801" height="120" as="geometry" />
        </mxCell>
        <mxCell id="sK_VnhPonrPOl3efBzBL-24" value="[Пока объект не появится в зоне видимости датчика]" style="text;html=1;align=center;verticalAlign=middle;whiteSpace=wrap;rounded=0;" vertex="1" parent="1">
          <mxGeometry x="313" y="480" width="60" height="30" as="geometry" />
        </mxCell>
        <mxCell id="sK_VnhPonrPOl3efBzBL-25" value="Датчик расстояния" style="rounded=1;whiteSpace=wrap;html=1;" vertex="1" parent="1">
          <mxGeometry x="800" y="140" width="120" height="60" as="geometry" />
        </mxCell>
        <mxCell id="sK_VnhPonrPOl3efBzBL-26" value="" style="endArrow=none;dashed=1;html=1;rounded=0;" edge="1" parent="1">
          <mxGeometry width="50" height="50" relative="1" as="geometry">
            <mxPoint x="860" y="920" as="sourcePoint" />
            <mxPoint x="860" y="200" as="targetPoint" />
          </mxGeometry>
        </mxCell>
        <mxCell id="sK_VnhPonrPOl3efBzBL-27" value="" style="rounded=0;whiteSpace=wrap;html=1;" vertex="1" parent="1">
          <mxGeometry x="855" y="479" width="10" height="40" as="geometry" />
        </mxCell>
        <mxCell id="sK_VnhPonrPOl3efBzBL-28" value="" style="endArrow=classic;html=1;rounded=0;entryX=0.886;entryY=0.43;entryDx=0;entryDy=0;entryPerimeter=0;exitX=0;exitY=0.5;exitDx=0;exitDy=0;" edge="1" parent="1" source="sK_VnhPonrPOl3efBzBL-27" target="sK_VnhPonrPOl3efBzBL-6">
          <mxGeometry width="50" height="50" relative="1" as="geometry">
            <mxPoint x="385" y="480.83333333333326" as="sourcePoint" />
            <mxPoint x="435" y="530.8333333333333" as="targetPoint" />
          </mxGeometry>
        </mxCell>
        <mxCell id="sK_VnhPonrPOl3efBzBL-29" value="Снятие показаний" style="text;html=1;align=center;verticalAlign=middle;whiteSpace=wrap;rounded=0;" vertex="1" parent="1">
          <mxGeometry x="590" y="466" width="60" height="30" as="geometry" />
        </mxCell>
        <mxCell id="sK_VnhPonrPOl3efBzBL-30" value="loop" style="shape=umlFrame;whiteSpace=wrap;html=1;pointerEvents=0;" vertex="1" parent="1">
          <mxGeometry x="309" y="550" width="801" height="120" as="geometry" />
        </mxCell>
        <mxCell id="sK_VnhPonrPOl3efBzBL-32" value="" style="rounded=0;whiteSpace=wrap;html=1;" vertex="1" parent="1">
          <mxGeometry x="855" y="593" width="10" height="40" as="geometry" />
        </mxCell>
        <mxCell id="sK_VnhPonrPOl3efBzBL-33" value="" style="endArrow=classic;html=1;rounded=0;entryX=0.981;entryY=0.567;entryDx=0;entryDy=0;entryPerimeter=0;exitX=0;exitY=0.5;exitDx=0;exitDy=0;" edge="1" parent="1">
          <mxGeometry width="50" height="50" relative="1" as="geometry">
            <mxPoint x="855" y="618" as="sourcePoint" />
            <mxPoint x="385" y="618" as="targetPoint" />
          </mxGeometry>
        </mxCell>
        <mxCell id="sK_VnhPonrPOl3efBzBL-34" value="Снятие показаний" style="text;html=1;align=center;verticalAlign=middle;whiteSpace=wrap;rounded=0;" vertex="1" parent="1">
          <mxGeometry x="591" y="587" width="60" height="30" as="geometry" />
        </mxCell>
        <mxCell id="sK_VnhPonrPOl3efBzBL-35" value="[Пока объект не удалится из зоны видимости датчика]" style="text;html=1;align=center;verticalAlign=middle;whiteSpace=wrap;rounded=0;" vertex="1" parent="1">
          <mxGeometry x="313" y="610" width="60" height="30" as="geometry" />
        </mxCell>
        <mxCell id="sK_VnhPonrPOl3efBzBL-36" value="Пьезоэлемент" style="rounded=1;whiteSpace=wrap;html=1;" vertex="1" parent="1">
          <mxGeometry x="960" y="140" width="120" height="60" as="geometry" />
        </mxCell>
        <mxCell id="sK_VnhPonrPOl3efBzBL-39" value="" style="endArrow=classic;html=1;rounded=0;entryX=0;entryY=0.25;entryDx=0;entryDy=0;" edge="1" parent="1">
          <mxGeometry width="50" height="50" relative="1" as="geometry">
            <mxPoint x="385" y="296" as="sourcePoint" />
            <mxPoint x="1015" y="293.50000000000034" as="targetPoint" />
          </mxGeometry>
        </mxCell>
        <mxCell id="sK_VnhPonrPOl3efBzBL-40" value="Подача разрешающего звукового сигнала" style="text;html=1;align=center;verticalAlign=middle;whiteSpace=wrap;rounded=0;" vertex="1" parent="1">
          <mxGeometry x="545" y="264" width="150" height="30" as="geometry" />
        </mxCell>
        <mxCell id="sK_VnhPonrPOl3efBzBL-45" value="Включить" style="text;html=1;align=center;verticalAlign=middle;whiteSpace=wrap;rounded=0;" vertex="1" parent="1">
          <mxGeometry x="590" y="677" width="60" height="30" as="geometry" />
        </mxCell>
        <mxCell id="sK_VnhPonrPOl3efBzBL-43" value="" style="rounded=0;whiteSpace=wrap;html=1;" vertex="1" parent="1">
          <mxGeometry x="695" y="680" width="10" height="60" as="geometry" />
        </mxCell>
        <mxCell id="sK_VnhPonrPOl3efBzBL-47" value="Выключить" style="text;html=1;align=center;verticalAlign=middle;whiteSpace=wrap;rounded=0;" vertex="1" parent="1">
          <mxGeometry x="590" y="708" width="60" height="30" as="geometry" />
        </mxCell>
        <mxCell id="sK_VnhPonrPOl3efBzBL-48" value="" style="endArrow=classic;html=1;rounded=0;entryX=0.1;entryY=0.98;entryDx=0;entryDy=0;entryPerimeter=0;" edge="1" parent="1" target="sK_VnhPonrPOl3efBzBL-13">
          <mxGeometry width="50" height="50" relative="1" as="geometry">
            <mxPoint x="385" y="760" as="sourcePoint" />
            <mxPoint x="435" y="710" as="targetPoint" />
          </mxGeometry>
        </mxCell>
        <mxCell id="sK_VnhPonrPOl3efBzBL-49" value="Разомкнуть" style="text;html=1;align=center;verticalAlign=middle;whiteSpace=wrap;rounded=0;" vertex="1" parent="1">
          <mxGeometry x="430" y="733" width="60" height="30" as="geometry" />
        </mxCell>
        <mxCell id="sK_VnhPonrPOl3efBzBL-50" value="" style="endArrow=none;dashed=1;html=1;dashPattern=1 3;strokeWidth=2;rounded=0;" edge="1" parent="1">
          <mxGeometry width="50" height="50" relative="1" as="geometry">
            <mxPoint x="300" y="780" as="sourcePoint" />
            <mxPoint x="1120" y="780" as="targetPoint" />
            <Array as="points">
              <mxPoint x="710" y="780" />
              <mxPoint x="1120" y="780" />
            </Array>
          </mxGeometry>
        </mxCell>
        <mxCell id="sK_VnhPonrPOl3efBzBL-51" value="[Проход запрещён]" style="text;html=1;align=center;verticalAlign=middle;whiteSpace=wrap;rounded=0;" vertex="1" parent="1">
          <mxGeometry x="309" y="790" width="60" height="30" as="geometry" />
        </mxCell>
        <mxCell id="sK_VnhPonrPOl3efBzBL-52" value="" style="rounded=0;whiteSpace=wrap;html=1;" vertex="1" parent="1">
          <mxGeometry x="1015" y="823" width="10" height="30" as="geometry" />
        </mxCell>
        <mxCell id="sK_VnhPonrPOl3efBzBL-53" value="" style="endArrow=classic;html=1;rounded=0;entryX=0;entryY=0.25;entryDx=0;entryDy=0;" edge="1" parent="1">
          <mxGeometry width="50" height="50" relative="1" as="geometry">
            <mxPoint x="385" y="827" as="sourcePoint" />
            <mxPoint x="1015" y="824.5000000000003" as="targetPoint" />
          </mxGeometry>
        </mxCell>
        <mxCell id="sK_VnhPonrPOl3efBzBL-54" value="Подача запрещающего звукового сигнала" style="text;html=1;align=center;verticalAlign=middle;whiteSpace=wrap;rounded=0;" vertex="1" parent="1">
          <mxGeometry x="545" y="795" width="150" height="30" as="geometry" />
        </mxCell>
      </root>
    </mxGraphModel>
  </diagram>
</mxfile>
